<svg width="23" height="23" viewBox="0 0 23 23" fill="none" xmlns="http://www.w3.org/2000/svg">
<path opacity="0.5" d="M19.2039 5.80566C19.7588 5.80566 20.2087 5.35578 20.2087 4.80081C20.2087 4.2617 19.7842 3.82175 19.2512 3.79705L19.2039 3.79596H10.9417C10.3868 3.79596 9.93689 4.24584 9.93689 4.80081C9.93689 5.33992 10.3614 5.77987 10.8944 5.80457L10.9417 5.80566H19.2039Z" fill="#FFE380"/>
<path opacity="0.5" d="M19.2039 10.7189C19.7588 10.7189 20.2087 11.1688 20.2087 11.7237C20.2087 12.2628 19.7842 12.7028 19.2512 12.7275L19.2039 12.7286H10.9417C10.3868 12.7286 9.93689 12.2787 9.93689 11.7237C9.93689 11.1846 10.3614 10.7447 10.8944 10.72L10.9417 10.7189H19.2039Z" fill="#FFE380"/>
<path opacity="0.5" d="M19.2039 17.4154C19.7588 17.4154 20.2087 17.8653 20.2087 18.4203C20.2087 18.9594 19.7842 19.3993 19.2512 19.424L19.2039 19.4251H10.9417C10.3868 19.4251 9.93689 18.9752 9.93689 18.4203C9.93689 17.8812 10.3614 17.4412 10.8944 17.4165L10.9417 17.4154H19.2039Z" fill="#FFE380"/>
<path fill-rule="evenodd" clip-rule="evenodd" d="M20.3204 23C21.8003 23 23 21.8003 23 20.3204V2.67961C23 1.1997 21.8003 0 20.3204 0H2.67961C1.1997 0 0 1.1997 0 2.67961V20.3204C0 21.8003 1.1997 23 2.67961 23H20.3204ZM6.65982 2.86017C7.0532 2.46871 7.68944 2.47027 8.08089 2.86365C8.46012 3.24473 8.47051 3.85373 8.11315 4.24732L8.07742 4.28472L5.83346 6.51773C5.4537 6.89564 4.84724 6.90745 4.45331 6.55316L4.41586 6.51773L3.087 5.19535C2.69363 4.80389 2.69207 4.16766 3.08353 3.77428C3.46276 3.39319 4.0717 3.37982 4.46703 3.73526L4.5046 3.7708L5.12467 4.38772L6.65982 2.86017ZM8.08089 9.5628C7.68944 9.16942 7.0532 9.16786 6.65982 9.55932L5.12467 11.0869L4.5046 10.47L4.46703 10.4344C4.0717 10.079 3.46276 10.0923 3.08353 10.4734C2.69207 10.8668 2.69363 11.503 3.087 11.8945L4.41586 13.2169L4.45331 13.2523C4.84724 13.6066 5.4537 13.5948 5.83346 13.2169L8.07742 10.9839L8.11315 10.9465C8.47051 10.5529 8.46012 9.94388 8.08089 9.5628ZM6.65982 16.2576C7.0532 15.8662 7.68944 15.8677 8.08089 16.2611C8.46012 16.6422 8.47051 17.2512 8.11315 17.6448L8.07742 17.6822L5.83346 19.9152C5.4537 20.2931 4.84724 20.3049 4.45331 19.9506L4.41586 19.9152L3.087 18.5928C2.69363 18.2013 2.69207 17.5651 3.08353 17.1717C3.46276 16.7906 4.0717 16.7773 4.46703 17.1327L4.5046 17.1683L5.12467 17.7852L6.65982 16.2576ZM20.2087 4.80078C20.2087 5.35574 19.7588 5.80563 19.2039 5.80563H10.9417L10.8944 5.80454C10.3614 5.77984 9.93687 5.33989 9.93687 4.80078C9.93687 4.24581 10.3868 3.79592 10.9417 3.79592H19.2039L19.2512 3.79702C19.7842 3.82172 20.2087 4.26167 20.2087 4.80078ZM19.2039 10.7188C19.7588 10.7188 20.2087 11.1687 20.2087 11.7237C20.2087 12.2628 19.7842 12.7028 19.2512 12.7275L19.2039 12.7285H10.9417C10.3868 12.7285 9.93687 12.2787 9.93687 11.7237C9.93687 11.1846 10.3614 10.7446 10.8944 10.7199L10.9417 10.7188H19.2039ZM20.2087 18.4203C20.2087 17.8653 19.7588 17.4154 19.2039 17.4154H10.9417L10.8944 17.4165C10.3614 17.4412 9.93687 17.8812 9.93687 18.4203C9.93687 18.9753 10.3868 19.4252 10.9417 19.4252H19.2039L19.2512 19.4241C19.7842 19.3994 20.2087 18.9594 20.2087 18.4203Z" fill="#FFE380"/>
</svg>
