<svg width="25" height="26" viewBox="0 0 25 26" fill="none" xmlns="http://www.w3.org/2000/svg">
<path opacity="0.5" fill-rule="evenodd" clip-rule="evenodd" d="M14.3023 14.6278H11.7442C9.88185 14.6278 8.37211 16.1659 8.37211 18.0632V21.2617C8.37211 23.8787 10.4545 26.0002 13.0233 26.0002C15.592 26.0002 17.6744 23.8787 17.6744 21.2617V18.0632C17.6744 16.1659 16.1647 14.6278 14.3023 14.6278ZM11.7445 16.7605H14.3026C15.0091 16.7605 15.5817 17.3439 15.5817 18.0635V21.262C15.5817 22.7014 14.4364 23.8682 13.0236 23.8682C11.6108 23.8682 10.4654 22.7014 10.4654 21.262V18.0635C10.4654 17.3439 11.0381 16.7605 11.7445 16.7605Z" fill="#79F2C0"/>
<path fill-rule="evenodd" clip-rule="evenodd" d="M1.04675 15.6937L23.2147 22.2717C24.1076 22.5366 25.0002 21.8543 25.0002 20.9068V1.4229C25.0002 0.423318 24.0144 -0.264093 23.0998 0.097766L1.04675 8.82288V15.6937Z" fill="#79F2C0"/>
<path opacity="0.5" d="M1.04651 7.28296C1.60797 7.28296 2.06616 7.73341 2.09188 8.29894L2.09302 8.34912V16.1677C2.09302 16.7565 1.62448 17.2338 1.04651 17.2338C0.485053 17.2338 0.026863 16.7834 0.00113907 16.2179L0 16.1677V8.34912C0 7.7603 0.468539 7.28296 1.04651 7.28296Z" fill="#79F2C0"/>
</svg>
